<?xml version="1.0" encoding="UTF-8" standalone="no"?>
<!DOCTYPE svg PUBLIC "-//W3C//DTD SVG 1.1//EN" "http://www.w3.org/Graphics/SVG/1.1/DTD/svg11.dtd">
<svg width="100%" height="100%" viewBox="0 0 1200 1200" version="1.1" xmlns="http://www.w3.org/2000/svg" xmlns:xlink="http://www.w3.org/1999/xlink" xml:space="preserve" xmlns:serif="http://www.serif.com/" style="fill-rule:evenodd;clip-rule:evenodd;stroke-linejoin:round;stroke-miterlimit:2;">
    <g transform="matrix(1,0,0,1,-2500,0)">
        <rect id="Artboard3" x="2500" y="0" width="1200" height="1200" style="fill:none;"/>
        <g id="Artboard31" serif:id="Artboard3">
            <g transform="matrix(1.301518,0,0,1.301518,-931.889199,-141.86551)">
                <g transform="matrix(1,0,0,1,2510,0)">
                    <path d="M187,971C255.762,994.479 320.481,991.297 382,967C382,967 340.504,1005 281,1005C221.496,1005 187,971 187,971Z" style="fill:rgb(25,38,54);"/>
                </g>
                <g transform="matrix(-1,-0,0,-1,3253,1982)">
                    <path d="M167,977C245.585,1000.395 341.442,990.366 405,971C405,971 340.504,1005 281,1005C221.496,1005 167,977 167,977Z" style="fill:rgb(25,38,54);"/>
                </g>
                <g transform="matrix(1,0,0,1,2510,0)">
                    <path d="M411,959C411,959 428.858,945.635 496.806,945.873C612.934,946.279 638.984,1001.764 783.369,1001.765C916.246,1001.765 986,953 986,953C986,953 932.108,1031 781,1031C649.476,1031 590.395,974.517 507.888,961.451C446.157,951.675 415.301,957.089 411,959Z" style="fill:rgb(25,38,54);"/>
                </g>
                <g transform="matrix(1,0,0,1,2510,0)">
                    <path d="M251,773C251,773 391.394,696.131 551.321,537.749C737.682,353.187 867,109 867,109L660,795L251,773Z" style="fill:rgb(25,38,54);"/>
                </g>
                <g transform="matrix(1,0,0,1,2510,0)">
                    <path d="M867,214C884.619,449.891 845.671,654.46 694.704,797L1003,813.498L867,214Z" style="fill:rgb(25,38,54);"/>
                </g>
                <g transform="matrix(1,0,0,1,2510,0)">
                    <path d="M971.082,872.883C928.656,893.049 864.046,916.032 789.917,916.032C723.363,916.032 687.003,905.493 652.379,894.992C614.587,883.531 578.677,872.183 513.631,872.238C490.016,872.257 456.982,880.609 420.731,891.382C371.286,906.076 315.172,925.264 270.812,928C236.804,930.097 207.299,922.017 186.713,913.71L199,857L313,845L358,812L1003,827L971.082,872.883Z" style="fill:rgb(25,38,54);"/>
                </g>
                <g transform="matrix(1,0,0,1,2510,0)">
                    <path d="M144,915C144,915 198.59,953.326 272.094,948.794C348.287,944.096 458.326,893.117 513.648,893.071C638.071,892.967 650.962,936.865 789.917,936.865C928.872,936.865 1036,860 1036,860C1029.425,871.357 914.668,980 799,980C647.256,980 588.667,923.167 501,921C423.492,919.084 328.432,964.798 269,967.807C185.644,972.028 144,915 144,915Z" style="fill:rgb(25,38,54);"/>
                </g>
            </g>
        </g>
    </g>
</svg>
